<svg width="56" height="56" viewBox="0 0 56 56" fill="none" xmlns="http://www.w3.org/2000/svg">
<g clip-path="url(#clip0_2_816)">
<rect width="56" height="56" fill="#FFCB3D"/>
<g filter="url(#filter0_d_2_816)">
<path d="M22.8551 45.4035L22.6181 45.4044C22.1659 45.9592 21.6147 46.4353 20.9644 46.8328C20.3339 47.2302 19.5149 47.4309 18.5076 47.4347C17.7571 47.4376 17.0455 47.3119 16.373 47.0577C15.7203 46.8232 15.1463 46.4896 14.6508 46.057C14.1554 45.6243 13.7683 45.1024 13.4894 44.4911C13.2106 43.8799 13.0697 43.2089 13.0669 42.4781C13.0641 41.7276 13.2097 41.0555 13.5037 40.4618C13.7976 39.8484 14.2104 39.3234 14.742 38.8868C15.2736 38.4503 15.8945 38.122 16.6047 37.902C17.3346 37.6622 18.1242 37.5407 18.9735 37.5375C19.9216 37.5339 20.7021 37.6099 21.3149 37.7656C21.9278 37.9015 22.432 38.0477 22.8276 38.2042L22.8259 37.7598C22.823 36.9895 22.5144 36.3586 21.9002 35.8672C21.286 35.356 20.5246 35.1021 19.6161 35.1056C18.273 35.1107 17.1394 35.678 16.2154 36.8073L13.3935 34.8923C14.9267 32.9508 17.0265 31.975 19.693 31.9648C21.9446 31.9562 23.665 32.483 24.8541 33.545C26.0432 34.5873 26.6417 36.1454 26.6496 38.2192L26.6828 46.9295L22.8609 46.9441L22.8551 45.4035ZM22.8385 41.0484C22.3833 40.8328 21.9087 40.6668 21.4144 40.5501C20.9399 40.4137 20.4162 40.3465 19.8434 40.3487C18.9151 40.3523 18.195 40.5624 17.6831 40.9791C17.1908 41.376 16.9458 41.8708 16.948 42.4633C16.9503 43.0558 17.1891 43.529 17.6645 43.8827C18.1596 44.2363 18.7232 44.4119 19.3553 44.4095C19.8688 44.4076 20.3425 44.3169 20.7763 44.1375C21.2101 43.9383 21.5746 43.69 21.8697 43.3926C22.1845 43.0754 22.4202 42.719 22.5767 42.3233C22.7529 41.9079 22.8401 41.4829 22.8385 41.0484Z" fill="#57FFC2"/>
<path d="M22.8551 45.4035L23.5613 45.4008L23.5586 44.6946L22.8524 44.6973L22.8551 45.4035ZM22.6181 45.4044L22.6154 44.6982L22.2816 44.6995L22.0707 44.9582L22.6181 45.4044ZM20.9644 46.8328L20.596 46.2302L20.5878 46.2354L20.9644 46.8328ZM16.373 47.0577L16.6228 46.397L16.6118 46.3931L16.373 47.0577ZM14.6508 46.057L14.1863 46.5889L14.1863 46.5889L14.6508 46.057ZM13.4894 44.4911L14.1319 44.198L13.4894 44.4911ZM13.5037 40.4618L14.1365 40.7752L14.1405 40.767L13.5037 40.4618ZM14.742 38.8868L15.1902 39.4326L15.1902 39.4326L14.742 38.8868ZM16.6047 37.902L16.8137 38.5767L16.8252 38.5729L16.6047 37.902ZM21.3149 37.7656L21.1411 38.45L21.1515 38.4527L21.162 38.455L21.3149 37.7656ZM22.8276 38.2042L22.5678 38.8609L23.5378 39.2446L23.5338 38.2015L22.8276 38.2042ZM21.9002 35.8672L21.4484 36.4101L21.459 36.4186L21.9002 35.8672ZM16.2154 36.8073L15.8189 37.3917L16.3531 37.7542L16.762 37.2545L16.2154 36.8073ZM13.3935 34.8923L12.8393 34.4546L12.3689 35.0504L12.997 35.4767L13.3935 34.8923ZM24.8541 33.545L24.3837 34.0717L24.3886 34.076L24.8541 33.545ZM26.6828 46.9295L26.6855 47.6357L27.3917 47.633L27.389 46.9268L26.6828 46.9295ZM22.8609 46.9441L22.1548 46.9468L22.1575 47.653L22.8636 47.6503L22.8609 46.9441ZM22.8385 41.0484L23.5446 41.0457L23.5429 40.6006L23.1407 40.4101L22.8385 41.0484ZM21.4144 40.5501L21.2193 41.2288L21.2357 41.2335L21.2523 41.2374L21.4144 40.5501ZM17.6831 40.9791L18.1263 41.5289L18.1289 41.5268L17.6831 40.9791ZM17.6645 43.8827L17.2429 44.4493L17.2541 44.4573L17.6645 43.8827ZM20.7763 44.1375L21.0462 44.79L21.0587 44.7849L21.071 44.7792L20.7763 44.1375ZM21.8697 43.3926L22.371 43.89L22.371 43.89L21.8697 43.3926ZM22.5767 42.3233L21.9265 42.0476L21.9232 42.0555L21.92 42.0636L22.5767 42.3233ZM22.8524 44.6973L22.6154 44.6982L22.6207 46.1106L22.8578 46.1097L22.8524 44.6973ZM22.0707 44.9582C21.6721 45.4472 21.1827 45.8717 20.5961 46.2303L21.3327 47.4353C22.0466 46.9989 22.6597 46.4711 23.1655 45.8506L22.0707 44.9582ZM20.5878 46.2354C20.1021 46.5415 19.425 46.725 18.5049 46.7285L18.5103 48.1409C19.6049 48.1367 20.5656 47.9189 21.3409 47.4302L20.5878 46.2354ZM18.5049 46.7285C17.8367 46.7311 17.2111 46.6195 16.6227 46.3971L16.1233 47.7183C16.88 48.0043 17.6774 48.1441 18.5103 48.1409L18.5049 46.7285ZM16.6118 46.3931C16.0374 46.1867 15.5409 45.8967 15.1153 45.525L14.1863 46.5889C14.7516 47.0825 15.4033 47.4596 16.1342 47.7223L16.6118 46.3931ZM15.1153 45.525C14.6972 45.1599 14.37 44.7199 14.1319 44.198L12.8469 44.7843C13.1665 45.4848 13.6136 46.0887 14.1863 46.5889L15.1153 45.525ZM14.1319 44.198C13.8982 43.6858 13.7756 43.1149 13.7731 42.4754L12.3608 42.4808C12.3639 43.3029 12.5229 44.0741 12.8469 44.7843L14.1319 44.198ZM13.7731 42.4754C13.7706 41.8198 13.8973 41.2583 14.1365 40.7752L12.8708 40.1484C12.522 40.8527 12.3575 41.6353 12.3608 42.4808L13.7731 42.4754ZM14.1405 40.767C14.3894 40.2476 14.7373 39.8045 15.1902 39.4326L14.2938 38.3411C13.6834 38.8423 13.2058 39.4491 12.8668 40.1566L14.1405 40.767ZM15.1902 39.4326C15.6456 39.0586 16.1837 38.7717 16.8137 38.5766L16.3958 37.2275C15.6054 37.4723 14.9016 37.842 14.2938 38.3411L15.1902 39.4326ZM16.8252 38.5729C17.4778 38.3585 18.1932 38.2466 18.9762 38.2437L18.9708 36.8313C18.0553 36.8348 17.1915 36.9659 16.3843 37.2311L16.8252 38.5729ZM18.9762 38.2437C19.8912 38.2402 20.6069 38.3143 21.1411 38.45L21.4888 37.0811C20.7972 36.9054 19.952 36.8275 18.9708 36.8313L18.9762 38.2437ZM21.162 38.455C21.7538 38.5862 22.219 38.7229 22.5678 38.8609L23.0874 37.5475C22.6449 37.3725 22.1017 37.2167 21.4679 37.0761L21.162 38.455ZM23.5338 38.2015L23.5321 37.7571L22.1197 37.7625L22.1214 38.2069L23.5338 38.2015ZM23.5321 37.7571C23.5283 36.7681 23.1183 35.9374 22.3415 35.3158L21.459 36.4186C21.9106 36.7799 22.1176 37.2109 22.1197 37.7625L23.5321 37.7571ZM22.352 35.3244C21.5928 34.6926 20.6638 34.3954 19.6134 34.3994L19.6187 35.8118C20.3854 35.8089 20.9792 36.0194 21.4485 36.41L22.352 35.3244ZM19.6134 34.3994C18.0395 34.4054 16.7133 35.0836 15.6689 36.3601L16.762 37.2545C17.5656 36.2723 18.5064 35.816 19.6187 35.8118L19.6134 34.3994ZM16.612 36.223L13.7901 34.308L12.997 35.4767L15.8189 37.3917L16.612 36.223ZM13.9477 35.33C15.3361 33.5719 17.2252 32.6804 19.6956 32.671L19.6903 31.2586C16.8279 31.2696 14.5173 32.3298 12.8393 34.4546L13.9477 35.33ZM19.6956 32.671C21.8445 32.6628 23.3697 33.1661 24.3837 34.0717L25.3245 33.0183C23.9602 31.7998 22.0447 31.2497 19.6903 31.2586L19.6956 32.671ZM24.3886 34.076C25.3815 34.9463 25.936 36.2837 25.9434 38.2219L27.3557 38.2165C27.3473 36.0071 26.7049 34.2282 25.3196 33.0139L24.3886 34.076ZM25.9434 38.2219L25.9766 46.9322L27.389 46.9268L27.3557 38.2165L25.9434 38.2219ZM26.6801 46.2233L22.8582 46.2379L22.8636 47.6503L26.6855 47.6357L26.6801 46.2233ZM23.5671 46.9414L23.5613 45.4008L22.1489 45.4062L22.1548 46.9468L23.5671 46.9414ZM23.1407 40.4101C22.6404 40.1732 22.1187 39.9907 21.5766 39.8628L21.2523 41.2374C21.6986 41.3428 22.1263 41.4925 22.5362 41.6866L23.1407 40.4101ZM21.6096 39.8714C21.0614 39.7138 20.47 39.6401 19.8407 39.6425L19.8461 41.0549C20.3624 41.0529 20.8184 41.1135 21.2193 41.2288L21.6096 39.8714ZM19.8407 39.6425C18.8155 39.6465 17.9167 39.8784 17.2372 40.4315L18.1289 41.5268C18.4733 41.2464 19.0148 41.0581 19.8461 41.0549L19.8407 39.6425ZM17.2398 40.4294C16.5934 40.9505 16.2387 41.6429 16.2419 42.466L17.6542 42.4606C17.6528 42.0987 17.7881 41.8016 18.1263 41.5289L17.2398 40.4294ZM16.2419 42.466C16.245 43.2808 16.5892 43.9628 17.243 44.4492L18.0861 43.3161C17.789 43.0951 17.6556 42.8309 17.6542 42.4606L16.2419 42.466ZM17.2541 44.4573C17.8746 44.9005 18.584 45.1187 19.358 45.1157L19.3526 43.7033C18.8625 43.7052 18.4447 43.5721 18.075 43.308L17.2541 44.4573ZM19.358 45.1157C19.9545 45.1134 20.52 45.0077 21.0462 44.79L20.5065 43.4849C20.165 43.6261 19.7831 43.7017 19.3526 43.7033L19.358 45.1157ZM21.071 44.7792C21.5711 44.5496 22.0085 44.2553 22.371 43.89L21.3684 42.8952C21.1407 43.1247 20.8491 43.327 20.4817 43.4957L21.071 44.7792ZM22.371 43.89C22.7497 43.5084 23.0399 43.0721 23.2333 42.5831L21.92 42.0636C21.8004 42.3658 21.6194 42.6423 21.3684 42.8952L22.371 43.89ZM23.2268 42.599C23.4389 42.099 23.5467 41.5795 23.5446 41.0457L22.1323 41.0511C22.1335 41.3863 22.0668 41.7168 21.9265 42.0476L23.2268 42.599Z" fill="black"/>
</g>
<g filter="url(#filter1_d_2_816)">
<path d="M52.3619 50.313C51.418 50.4025 50.5613 50.3647 49.7918 50.1995C49.0419 50.0326 48.3739 49.7884 47.7879 49.467C47.2197 49.124 46.7255 48.7245 46.3053 48.2683C45.8833 47.7925 45.5497 47.3083 45.3046 46.8157L48.6156 45.0138C49.0207 45.7293 49.5163 46.2478 50.1023 46.5692C50.7061 46.869 51.3521 46.9863 52.0403 46.9211C52.7482 46.854 53.2964 46.673 53.6851 46.3783C54.0738 46.0835 54.2514 45.7592 54.2178 45.4052C54.1805 45.012 53.9737 44.7141 53.5974 44.5117C53.2389 44.2878 52.6276 44.1176 51.7634 44.0011L49.6864 43.7517C49.2248 43.6962 48.738 43.5837 48.2259 43.414C47.7335 43.2424 47.2748 43.0081 46.8498 42.7112C46.4249 42.4142 46.0622 42.0418 45.7618 41.5942C45.4615 41.1465 45.2815 40.608 45.2218 39.9788C45.1547 39.2709 45.2425 38.6277 45.4853 38.0492C45.7477 37.4688 46.1266 36.9666 46.6221 36.5427C47.1157 36.0991 47.7072 35.7454 48.3964 35.4817C49.1034 35.1964 49.8699 35.0146 50.6957 34.9363C52.0721 34.8058 53.3272 34.9646 54.4608 35.4126C55.5926 35.841 56.4701 36.6209 57.0932 37.7522L53.8889 39.4249C53.5596 38.8808 53.1173 38.5061 52.5622 38.3008C52.0071 38.0955 51.464 38.018 50.9331 38.0684C50.3826 38.1206 49.912 38.2842 49.5214 38.5593C49.129 38.8148 48.9496 39.1195 48.9831 39.4734C49.0148 39.8077 49.2071 40.0573 49.5601 40.2222C49.9326 40.3853 50.4213 40.5175 51.0261 40.6189L53.2886 40.9401C54.7969 41.1542 55.9422 41.621 56.7247 42.3404C57.5249 43.0383 57.9754 43.9181 58.076 44.9799C58.1357 45.6091 58.0451 46.2228 57.8042 46.821C57.5633 47.4192 57.189 47.9705 56.6813 48.475C56.1914 48.9579 55.5752 49.3635 54.8326 49.6919C54.1096 50.0183 53.286 50.2254 52.3619 50.313Z" fill="#57FFC2"/>
<path d="M49.7918 50.1995L49.6383 50.8889L49.6436 50.89L49.7918 50.1995ZM47.7879 49.467L47.423 50.0716L47.4355 50.0791L47.4483 50.0861L47.7879 49.467ZM46.3053 48.2683L45.7769 48.737L45.7859 48.7468L46.3053 48.2683ZM45.3046 46.8157L44.967 46.1954L44.3691 46.5208L44.6723 47.1303L45.3046 46.8157ZM48.6156 45.0138L49.2302 44.6659L48.888 44.0616L48.2781 44.3935L48.6156 45.0138ZM50.1023 46.5692L49.7627 47.1883L49.7753 47.1952L49.7882 47.2016L50.1023 46.5692ZM53.5974 44.5117L53.2233 45.1107L53.2428 45.1228L53.2629 45.1337L53.5974 44.5117ZM51.7634 44.0011L51.8578 43.3012L51.8477 43.3L51.7634 44.0011ZM49.6864 43.7517L49.7706 43.0505L49.7706 43.0505L49.6864 43.7517ZM48.2259 43.414L47.9935 44.0809L48.0037 44.0843L48.2259 43.414ZM46.8498 42.7112L46.4453 43.29L46.4453 43.29L46.8498 42.7112ZM45.7618 41.5941L45.1754 41.9876L45.1754 41.9876L45.7618 41.5941ZM45.4853 38.0492L44.8418 37.7583L44.8378 37.7671L44.8341 37.776L45.4853 38.0492ZM46.6221 36.5427L47.0812 37.0793L47.0877 37.0737L47.0941 37.068L46.6221 36.5427ZM48.3964 35.4817L48.6488 36.1413L48.6606 36.1366L48.3964 35.4817ZM54.4608 35.4126L54.2013 36.0695L54.2109 36.0731L54.4608 35.4126ZM57.0932 37.7522L57.42 38.3782L58.0601 38.044L57.7118 37.4115L57.0932 37.7522ZM53.8889 39.4249L53.2848 39.7906L53.6281 40.3577L54.2157 40.0509L53.8889 39.4249ZM52.5622 38.3008L52.8071 37.6384L52.8071 37.6384L52.5622 38.3008ZM49.5214 38.5593L49.9067 39.1512L49.9175 39.1441L49.9281 39.1367L49.5214 38.5593ZM49.5601 40.2222L49.2611 40.862L49.2689 40.8657L49.2769 40.8691L49.5601 40.2222ZM51.0261 40.6189L50.9094 41.3154L50.9181 41.3168L50.9269 41.3181L51.0261 40.6189ZM53.2886 40.9401L53.1893 41.6393L53.2886 40.9401ZM56.7247 42.3404L56.2467 42.8602L56.2535 42.8665L56.2605 42.8726L56.7247 42.3404ZM57.8042 46.821L58.4593 47.0848L57.8042 46.821ZM56.6813 48.475L57.1771 48.9779L57.1791 48.9759L56.6813 48.475ZM54.8326 49.6919L54.547 49.046L54.5419 49.0483L54.8326 49.6919ZM52.2952 49.61C51.409 49.694 50.6262 49.6563 49.9399 49.5091L49.6436 50.89C50.4964 51.073 51.4271 51.111 52.4285 51.016L52.2952 49.61ZM49.9452 49.5102C49.2509 49.3556 48.6471 49.1328 48.1275 48.8478L47.4483 50.0861C48.1007 50.4439 48.8328 50.7095 49.6383 50.8888L49.9452 49.5102ZM48.1528 48.8624C47.6378 48.5515 47.1966 48.1936 46.8247 47.7899L45.7859 48.7468C46.2545 49.2554 46.8016 49.6965 47.423 50.0716L48.1528 48.8624ZM46.8336 47.7997C46.4466 47.3634 46.1503 46.9302 45.9368 46.5011L44.6723 47.1303C44.9491 47.6865 45.3199 48.2217 45.777 48.737L46.8336 47.7997ZM45.6421 47.436L48.9532 45.6341L48.2781 44.3935L44.967 46.1954L45.6421 47.436ZM48.0011 45.3617C48.456 46.1652 49.0378 46.7907 49.7627 47.1883L50.4419 45.95C49.9948 45.7048 49.5855 45.2934 49.2302 44.6659L48.0011 45.3617ZM49.7882 47.2016C50.5129 47.5616 51.2912 47.7015 52.1069 47.6241L51.9736 46.2181C51.4129 46.2712 50.8992 46.1765 50.4164 45.9367L49.7882 47.2016ZM52.1069 47.6241C52.8892 47.55 53.5811 47.3435 54.1118 46.941L53.2584 45.8156C53.0118 46.0026 52.6071 46.158 51.9736 46.2181L52.1069 47.6241ZM54.1118 46.941C54.6148 46.5595 54.9857 46.0221 54.9209 45.3386L53.5148 45.4719C53.5171 45.4962 53.5328 45.6075 53.2584 45.8156L54.1118 46.941ZM54.9209 45.3386C54.8592 44.6884 54.4961 44.1932 53.932 43.8898L53.2629 45.1337C53.4514 45.235 53.5019 45.3356 53.5148 45.4719L54.9209 45.3386ZM53.9716 43.9128C53.4777 43.6043 52.7378 43.4199 51.8578 43.3013L51.6691 44.701C52.5174 44.8153 53.0002 44.9713 53.2233 45.1107L53.9716 43.9128ZM51.8477 43.3L49.7706 43.0505L49.6022 44.4528L51.6792 44.7023L51.8477 43.3ZM49.7706 43.0505C49.3626 43.0015 48.9222 42.9008 48.448 42.7436L48.0037 44.0843C48.5537 44.2665 49.0869 44.3909 49.6022 44.4528L49.7706 43.0505ZM48.4582 42.7471C48.0266 42.5967 47.6259 42.392 47.2543 42.1323L46.4453 43.29C46.9236 43.6243 47.4403 43.8881 47.9935 44.0808L48.4582 42.7471ZM47.2543 42.1323C46.9038 41.8873 46.6019 41.5788 46.3483 41.2007L45.1754 41.9876C45.5225 42.5049 45.9459 42.941 46.4453 43.29L47.2543 42.1323ZM46.3483 41.2007C46.1238 40.8661 45.9753 40.4446 45.9248 39.9121L44.5188 40.0455C44.5876 40.7714 44.7992 41.4268 45.1754 41.9876L46.3483 41.2007ZM45.9248 39.9121C45.8672 39.3045 45.9444 38.7801 46.1365 38.3224L44.8341 37.776C44.5406 38.4754 44.4422 39.2374 44.5188 40.0455L45.9248 39.9121ZM46.1287 38.3401C46.3474 37.8564 46.6625 37.4375 47.0812 37.0793L46.163 36.0061C45.5907 36.4958 45.1479 37.0812 44.8418 37.7583L46.1287 38.3401ZM47.0941 37.068C47.5166 36.6883 48.0313 36.3775 48.6488 36.1412L48.144 34.8221C47.383 35.1134 46.7149 35.5099 46.1501 36.0174L47.0941 37.068ZM48.6606 36.1366C49.2992 35.8789 49.9984 35.7118 50.7624 35.6394L50.6291 34.2333C49.7413 34.3175 48.9077 34.5139 48.1321 34.8268L48.6606 36.1366ZM50.7624 35.6394C52.0429 35.518 53.1843 35.6675 54.2013 36.0694L54.7204 34.7559C53.47 34.2617 52.1013 34.0937 50.6291 34.2333L50.7624 35.6394ZM54.2109 36.0731C55.1746 36.4379 55.9266 37.0979 56.4746 38.0929L57.7118 37.4115C57.0136 36.1439 56.0106 35.2441 54.7108 34.7522L54.2109 36.0731ZM56.7664 37.1262L53.5621 38.7989L54.2157 40.0509L57.42 38.3782L56.7664 37.1262ZM54.4931 39.0593C54.0876 38.3894 53.5237 37.9034 52.8071 37.6384L52.3173 38.9631C52.711 39.1088 53.0316 39.3722 53.2848 39.7906L54.4931 39.0593ZM52.8071 37.6384C52.1635 37.4005 51.5141 37.3039 50.8665 37.3653L50.9998 38.7714C51.414 38.7321 51.8506 38.7906 52.3173 38.9631L52.8071 37.6384ZM50.8665 37.3653C50.2131 37.4273 49.6207 37.6256 49.1148 37.982L49.9281 39.1367C50.2033 38.9428 50.5521 38.8139 50.9998 38.7714L50.8665 37.3653ZM49.1362 37.9675C48.6049 38.3133 48.2138 38.8404 48.2801 39.54L49.6862 39.4067C49.6834 39.377 49.6873 39.3612 49.7011 39.3378C49.7205 39.3049 49.7735 39.2378 49.9067 39.1512L49.1362 37.9675ZM48.2801 39.54C48.3396 40.1675 48.7246 40.6113 49.2611 40.862L49.8591 39.5824C49.7611 39.5367 49.7234 39.497 49.7106 39.4803C49.7011 39.468 49.6903 39.4504 49.6862 39.4067L48.2801 39.54ZM49.2769 40.8691C49.7223 41.0641 50.2731 41.2087 50.9094 41.3154L51.1429 39.9224C50.5695 39.8263 50.143 39.7065 49.8432 39.5753L49.2769 40.8691ZM50.9269 41.3181L53.1893 41.6393L53.3878 40.2409L51.1254 39.9197L50.9269 41.3181ZM53.1893 41.6393C54.6148 41.8416 55.606 42.2711 56.2467 42.8602L57.2026 41.8205C56.2785 40.9708 54.9789 40.4668 53.3878 40.2409L53.1893 41.6393ZM56.2605 42.8726C56.9238 43.451 57.2893 44.1639 57.373 45.0466L58.7791 44.9133C58.6614 43.6723 58.1261 42.6255 57.1888 41.8081L56.2605 42.8726ZM57.373 45.0466C57.4218 45.561 57.3487 46.0616 57.1491 46.5572L58.4593 47.0848C58.7414 46.3841 58.8496 45.6572 58.7791 44.9133L57.373 45.0466ZM57.1491 46.5572C56.9478 47.0572 56.6308 47.5297 56.1836 47.974L57.1791 48.9759C57.7473 48.4114 58.1788 47.7812 58.4593 47.0848L57.1491 46.5572ZM56.1856 47.9721C55.7664 48.3853 55.2253 48.7461 54.547 49.046L55.1181 50.3378C55.9251 49.981 56.6165 49.5306 57.1771 48.9779L56.1856 47.9721ZM54.5419 49.0483C53.9007 49.3378 53.1548 49.5285 52.2952 49.61L52.4285 51.016C53.4172 50.9223 54.3184 50.6989 55.1232 50.3355L54.5419 49.0483Z" fill="black"/>
</g>
<g filter="url(#filter2_d_2_816)">
<path d="M2.19078 2.61193L6.11086 3.0169L11.4117 14.8545L11.6475 14.8788L19.2564 4.37492L23.2059 4.78294L21.0258 25.8865L17.0762 25.4785L18.1511 15.0741L18.7522 11.5615L18.5165 11.5372L12.1747 20.4442L9.78732 20.1976L5.37095 10.1791L5.13515 10.1548L5.00556 13.716L3.93072 24.1204L0.0106446 23.7155L2.19078 2.61193Z" fill="#57FFC2"/>
<path d="M2.19078 2.61193L2.26335 1.90948L1.5609 1.83691L1.48833 2.53936L2.19078 2.61193ZM6.11086 3.0169L6.75537 2.72829L6.58881 2.35633L6.18342 2.31445L6.11086 3.0169ZM11.4117 14.8545L10.7672 15.1431L10.9337 15.515L11.3391 15.5569L11.4117 14.8545ZM11.6475 14.8788L11.5749 15.5813L11.9803 15.6232L12.2194 15.2931L11.6475 14.8788ZM19.2564 4.37492L19.3289 3.67247L18.9235 3.63059L18.6845 3.96064L19.2564 4.37492ZM23.2059 4.78294L23.9084 4.85551L23.9809 4.15305L23.2785 4.08049L23.2059 4.78294ZM21.0258 25.8865L20.9532 26.5889L21.6556 26.6615L21.7282 25.959L21.0258 25.8865ZM17.0762 25.4785L16.3738 25.4059L16.3012 26.1083L17.0037 26.1809L17.0762 25.4785ZM18.1511 15.0741L17.455 14.9549L17.451 14.9781L17.4486 15.0015L18.1511 15.0741ZM18.7522 11.5615L19.4483 11.6807L19.5757 10.9366L18.8248 10.8591L18.7522 11.5615ZM18.5165 11.5372L18.589 10.8347L18.1798 10.7924L17.9412 11.1276L18.5165 11.5372ZM12.1747 20.4442L12.1022 21.1467L12.5114 21.1889L12.75 20.8538L12.1747 20.4442ZM9.78732 20.1976L9.14113 20.4824L9.30663 20.8579L9.71475 20.9L9.78732 20.1976ZM5.37095 10.1791L6.01714 9.89428L5.85164 9.51885L5.44352 9.47669L5.37095 10.1791ZM5.13515 10.1548L5.20772 9.45233L4.45688 9.37476L4.42943 10.1291L5.13515 10.1548ZM5.00556 13.716L5.70801 13.7886L5.71043 13.7652L5.71128 13.7417L5.00556 13.716ZM3.93072 24.1204L3.85815 24.8229L4.5606 24.8955L4.63317 24.193L3.93072 24.1204ZM0.0106446 23.7155L-0.691806 23.6429L-0.764374 24.3454L-0.0619232 24.4179L0.0106446 23.7155ZM2.11822 3.31438L6.03829 3.71935L6.18342 2.31445L2.26335 1.90948L2.11822 3.31438ZM5.46634 3.30552L10.7672 15.1431L12.0562 14.5658L6.75537 2.72829L5.46634 3.30552ZM11.3391 15.5569L11.5749 15.5813L11.7201 14.1764L11.4843 14.152L11.3391 15.5569ZM12.2194 15.2931L19.8283 4.7892L18.6845 3.96064L11.0756 14.4645L12.2194 15.2931ZM19.1838 5.07737L23.1333 5.48539L23.2785 4.08049L19.3289 3.67247L19.1838 5.07737ZM22.5035 4.71037L20.3233 25.8139L21.7282 25.959L23.9084 4.85551L22.5035 4.71037ZM21.0983 25.184L17.1488 24.776L17.0037 26.1809L20.9532 26.5889L21.0983 25.184ZM17.7787 25.551L18.8535 15.1466L17.4486 15.0015L16.3738 25.4059L17.7787 25.551ZM18.8471 15.1932L19.4483 11.6807L18.0562 11.4424L17.455 14.9549L18.8471 15.1932ZM18.8248 10.8591L18.589 10.8347L18.4439 12.2396L18.6797 12.264L18.8248 10.8591ZM17.9412 11.1276L11.5995 20.0346L12.75 20.8538L19.0917 11.9467L17.9412 11.1276ZM12.2473 19.7418L9.85989 19.4951L9.71475 20.9L12.1022 21.1467L12.2473 19.7418ZM10.4335 19.9127L6.01714 9.89428L4.72476 10.464L9.14113 20.4824L10.4335 19.9127ZM5.44352 9.47669L5.20772 9.45233L5.06259 10.8572L5.29838 10.8816L5.44352 9.47669ZM4.42943 10.1291L4.29984 13.6904L5.71128 13.7417L5.84088 10.1805L4.42943 10.1291ZM4.30311 13.6435L3.22827 24.0479L4.63317 24.193L5.70801 13.7886L4.30311 13.6435ZM4.00328 23.418L0.0832124 23.013L-0.0619232 24.4179L3.85815 24.8229L4.00328 23.418ZM0.713095 23.788L2.89323 2.6845L1.48833 2.53936L-0.691806 23.6429L0.713095 23.788Z" fill="black"/>
</g>
<g filter="url(#filter3_d_2_816)">
<path d="M49.9563 23.0958L49.7206 23.07C49.3006 23.6401 48.6939 24.1005 47.9005 24.451C47.1071 24.8015 46.1606 24.9166 45.0609 24.7965C44.1379 24.6957 43.2746 24.4126 42.471 23.9472C41.6891 23.4644 41.0107 22.8537 40.4356 22.1152C39.8823 21.3593 39.4706 20.4896 39.2004 19.5063C38.9303 18.5229 38.8564 17.4716 38.9787 16.3523C39.101 15.233 39.4001 14.2224 39.8762 13.3206C40.3523 12.4187 40.941 11.6683 41.6423 11.0693C42.3655 10.4528 43.1598 10.003 44.0253 9.72004C44.9126 9.41955 45.8177 9.31972 46.7407 9.42055C47.8404 9.54069 48.7397 9.85753 49.4387 10.3711C50.1378 10.8846 50.6307 11.4651 50.9177 12.1124L51.1534 12.1382L51.143 10.0505L51.8348 3.71753L55.6936 4.13909L53.3895 25.2295L49.7664 24.8336L49.9563 23.0958ZM46.2456 21.3192C46.7561 21.375 47.2469 21.3392 47.7179 21.2118C48.2106 21.0669 48.653 20.837 49.0451 20.5222C49.4372 20.2073 49.7691 19.8064 50.0409 19.3195C50.3127 18.8325 50.484 18.265 50.5548 17.617C50.6256 16.9689 50.5809 16.3778 50.4207 15.8437C50.2604 15.3095 50.0229 14.8464 49.708 14.4543C49.3932 14.0622 49.0098 13.7521 48.5578 13.5238C48.1276 13.2781 47.6572 13.1274 47.1466 13.0716C46.6361 13.0158 46.1344 13.0604 45.6416 13.2052C45.1685 13.3523 44.7359 13.5832 44.3439 13.8981C43.9518 14.2129 43.6198 14.6138 43.348 15.1008C43.0763 15.5878 42.906 16.1455 42.8374 16.7738C42.7687 17.4022 42.8145 17.9835 42.9748 18.5177C43.135 19.0518 43.3725 19.515 43.6874 19.9071C44.0022 20.2991 44.3748 20.618 44.805 20.8638C45.2548 21.1116 45.735 21.2634 46.2456 21.3192Z" fill="#57FFC2"/>
<path d="M49.9563 23.0958L50.6583 23.1724L50.735 22.4704L50.033 22.3937L49.9563 23.0958ZM49.7206 23.07L49.7973 22.368L49.3932 22.3238L49.152 22.6512L49.7206 23.07ZM47.9005 24.451L48.1859 25.0969L47.9005 24.451ZM42.471 23.9472L42.0999 24.5481L42.1085 24.5533L42.1171 24.5583L42.471 23.9472ZM40.4356 22.1152L39.8657 22.5323L39.872 22.5408L39.8784 22.5491L40.4356 22.1152ZM39.2004 19.5063L38.5195 19.6934L39.2004 19.5063ZM39.8762 13.3206L40.5007 13.6503L39.8762 13.3206ZM41.6423 11.0693L41.1842 10.5319L41.1837 10.5323L41.6423 11.0693ZM44.0253 9.72004L44.2448 10.3913L44.2518 10.3889L44.0253 9.72004ZM49.4387 10.3711L49.8569 9.80196L49.8568 9.80196L49.4387 10.3711ZM50.9177 12.1124L50.2721 12.3986L50.4369 12.7703L50.841 12.8145L50.9177 12.1124ZM51.1534 12.1382L51.0767 12.8402L51.8635 12.9262L51.8595 12.1347L51.1534 12.1382ZM51.143 10.0505L50.441 9.97384L50.4366 10.0138L50.4368 10.054L51.143 10.0505ZM51.8348 3.71753L51.9115 3.01552L51.2095 2.93882L51.1328 3.64084L51.8348 3.71753ZM55.6936 4.13909L56.3956 4.21579L56.4723 3.51377L55.7703 3.43708L55.6936 4.13909ZM53.3895 25.2295L53.3128 25.9315L54.0148 26.0082L54.0915 25.3062L53.3895 25.2295ZM49.7664 24.8336L49.0644 24.7569L48.9877 25.459L49.6897 25.5357L49.7664 24.8336ZM47.7179 21.2118L47.9023 21.8935L47.9097 21.8915L47.9171 21.8893L47.7179 21.2118ZM49.0451 20.5222L49.4873 21.0728L49.0451 20.5222ZM50.0409 19.3195L50.6576 19.6636L50.0409 19.3195ZM48.5578 13.5238L48.2075 14.137L48.2233 14.146L48.2395 14.1542L48.5578 13.5238ZM45.6416 13.2052L45.4424 12.5277L45.4321 12.5309L45.6416 13.2052ZM44.3439 13.8981L44.786 14.4487L44.786 14.4487L44.3439 13.8981ZM43.348 15.1008L42.7314 14.7566L43.348 15.1008ZM42.9748 18.5177L42.2983 18.7206L42.2983 18.7206L42.9748 18.5177ZM43.6874 19.9071L44.238 19.4649L44.238 19.4649L43.6874 19.9071ZM44.805 20.8638L44.4547 21.477L44.4642 21.4823L44.805 20.8638ZM50.033 22.3937L49.7973 22.368L49.6439 23.772L49.8796 23.7978L50.033 22.3937ZM49.152 22.6512C48.8198 23.1022 48.3212 23.4931 47.6152 23.805L48.1859 25.0969C49.0667 24.7078 49.7815 24.1781 50.2892 23.4888L49.152 22.6512ZM47.6152 23.805C46.9626 24.0933 46.1471 24.2048 45.1376 24.0945L44.9842 25.4985C46.174 25.6285 47.2516 25.5096 48.1859 25.0969L47.6152 23.805ZM45.1376 24.0945C44.3124 24.0043 43.5435 23.7522 42.8249 23.3361L42.1171 24.5583C43.0058 25.0729 43.9635 25.387 44.9842 25.4985L45.1376 24.0945ZM42.8421 23.3464C42.133 22.9085 41.5172 22.3548 40.9928 21.6813L39.8784 22.5491C40.5041 23.3526 41.2453 24.0202 42.0999 24.5481L42.8421 23.3464ZM41.0054 21.6981C40.5072 21.0174 40.1308 20.2271 39.8814 19.3192L38.5195 19.6934C38.8103 20.7521 39.2574 21.7012 39.8657 22.5323L41.0054 21.6981ZM39.8814 19.3192C39.6372 18.4302 39.5671 17.4691 39.6807 16.429L38.2767 16.2756C38.1457 17.4742 38.2234 18.6157 38.5195 19.6934L39.8814 19.3192ZM39.6807 16.429C39.7943 15.3889 40.0703 14.4656 40.5007 13.6503L39.2517 12.9909C38.73 13.9792 38.4076 15.077 38.2767 16.2756L39.6807 16.429ZM40.5007 13.6503C40.9395 12.819 41.4744 12.1415 42.101 11.6063L41.1837 10.5323C40.4077 11.1952 39.7651 12.0184 39.2517 12.9909L40.5007 13.6503ZM42.1005 11.6067C42.7567 11.0473 43.4706 10.6444 44.2448 10.3913L43.8058 9.04882C42.849 9.36169 41.9743 9.85831 41.1842 10.5319L42.1005 11.6067ZM44.2518 10.3889C45.0426 10.1211 45.8443 10.033 46.664 10.1226L46.8174 8.71854C45.7912 8.60643 44.7826 8.71798 43.7988 9.05117L44.2518 10.3889ZM46.664 10.1226C47.6736 10.2329 48.4457 10.5178 49.0206 10.9402L49.8568 9.80196C49.0337 9.19724 48.0072 8.84852 46.8174 8.71854L46.664 10.1226ZM49.0206 10.9402C49.6426 11.3971 50.0451 11.8865 50.2721 12.3986L51.5633 11.8263C51.2164 11.0436 50.6329 10.3721 49.8569 9.80196L49.0206 10.9402ZM50.841 12.8145L51.0767 12.8402L51.2301 11.4362L50.9944 11.4104L50.841 12.8145ZM51.8595 12.1347L51.8492 10.047L50.4368 10.054L50.4472 12.1417L51.8595 12.1347ZM51.845 10.1272L52.5369 3.79422L51.1328 3.64084L50.441 9.97384L51.845 10.1272ZM51.7582 4.41954L55.6169 4.8411L55.7703 3.43708L51.9115 3.01552L51.7582 4.41954ZM54.9916 4.0624L52.6874 25.1528L54.0915 25.3062L56.3956 4.21579L54.9916 4.0624ZM53.4662 24.5274L49.8431 24.1316L49.6897 25.5357L53.3128 25.9315L53.4662 24.5274ZM50.4684 24.9103L50.6583 23.1724L49.2542 23.0191L49.0644 24.7569L50.4684 24.9103ZM46.1689 22.0212C46.7623 22.0861 47.3419 22.0451 47.9023 21.8935L47.5335 20.5301C47.1519 20.6333 46.75 20.6639 46.3223 20.6172L46.1689 22.0212ZM47.9171 21.8893C48.4964 21.719 49.0217 21.4467 49.4873 21.0728L48.603 19.9716C48.2843 20.2274 47.9248 20.4149 47.5187 20.5343L47.9171 21.8893ZM49.4873 21.0728C49.9576 20.6951 50.3463 20.2213 50.6576 19.6636L49.4243 18.9753C49.192 19.3915 48.9168 19.7196 48.603 19.9716L49.4873 21.0728ZM50.6576 19.6636C50.9825 19.0814 51.1775 18.42 51.2568 17.6937L49.8528 17.5403C49.7906 18.11 49.6429 18.5836 49.4243 18.9753L50.6576 19.6636ZM51.2568 17.6937C51.3362 16.9673 51.2887 16.2795 51.0971 15.6408L49.7442 16.0466C49.8731 16.4762 49.915 16.9705 49.8528 17.5403L51.2568 17.6937ZM51.0971 15.6408C50.9136 15.029 50.6364 14.4825 50.2587 14.0121L49.1574 14.8965C49.4094 15.2103 49.6073 15.59 49.7442 16.0466L51.0971 15.6408ZM50.2587 14.0121C49.8802 13.5409 49.4174 13.1668 48.8761 12.8934L48.2395 14.1542C48.6021 14.3373 48.9061 14.5835 49.1574 14.8965L50.2587 14.0121ZM48.908 12.9106C48.3906 12.6151 47.8266 12.4355 47.2233 12.3696L47.0699 13.7736C47.4878 13.8193 47.8646 13.9412 48.2075 14.137L48.908 12.9106ZM47.2233 12.3696C46.6201 12.3037 46.0246 12.3566 45.4424 12.5277L45.8409 13.8828C46.2442 13.7642 46.652 13.7279 47.0699 13.7736L47.2233 12.3696ZM45.4321 12.5309C44.8731 12.7046 44.3618 12.978 43.9017 13.3474L44.786 14.4487C45.1101 14.1885 45.464 14 45.8512 13.8796L45.4321 12.5309ZM43.9017 13.3474C43.4313 13.7251 43.0427 14.1989 42.7314 14.7566L43.9647 15.445C44.197 15.0288 44.4722 14.7007 44.786 14.4487L43.9017 13.3474ZM42.7314 14.7566C42.4078 15.3365 42.2129 15.9873 42.1354 16.6972L43.5394 16.8505C43.5991 16.3036 43.7447 15.8391 43.9647 15.445L42.7314 14.7566ZM42.1354 16.6972C42.0578 17.407 42.1076 18.0846 42.2983 18.7206L43.6512 18.3148C43.5215 17.8825 43.4796 17.3975 43.5394 16.8505L42.1354 16.6972ZM42.2983 18.7206C42.4818 19.3324 42.7591 19.8789 43.1367 20.3492L44.238 19.4649C43.986 19.1511 43.7881 18.7713 43.6512 18.3148L42.2983 18.7206ZM43.1367 20.3492C43.5062 20.8093 43.9464 21.1867 44.4547 21.477L45.1552 20.2505C44.8031 20.0494 44.4982 19.789 44.238 19.4649L43.1367 20.3492ZM44.4642 21.4823C44.9957 21.7751 45.5656 21.9553 46.1689 22.0212L46.3223 20.6172C45.9044 20.5716 45.5139 20.4481 45.1458 20.2452L44.4642 21.4823Z" fill="black"/>
</g>
<g filter="url(#filter4_d_2_816)">
<path d="M0.390037 31.615L4.32444 30.8956L7.45797 48.0321L16.2885 46.4174L16.9706 50.1478L4.20569 52.4819L0.390037 31.615Z" fill="#57FFC2"/>
<path d="M0.390037 31.615L0.263011 30.9204L-0.43166 31.0474L-0.304634 31.7421L0.390037 31.615ZM4.32444 30.8956L5.01911 30.7686L4.89208 30.0739L4.19741 30.2009L4.32444 30.8956ZM7.45797 48.0321L6.7633 48.1591L6.89032 48.8538L7.58499 48.7268L7.45797 48.0321ZM16.2885 46.4174L16.9832 46.2904L16.8562 45.5957L16.1615 45.7227L16.2885 46.4174ZM16.9706 50.1478L17.0977 50.8424L17.7923 50.7154L17.6653 50.0208L16.9706 50.1478ZM4.20569 52.4819L3.51102 52.609L3.63805 53.3036L4.33272 53.1766L4.20569 52.4819ZM0.517062 32.3097L4.45146 31.5903L4.19741 30.2009L0.263011 30.9204L0.517062 32.3097ZM3.62977 31.0226L6.7633 48.1591L8.15264 47.9051L5.01911 30.7686L3.62977 31.0226ZM7.58499 48.7268L16.4155 47.1121L16.1615 45.7227L7.33094 47.3374L7.58499 48.7268ZM15.5938 46.5444L16.276 50.2748L17.6653 50.0208L16.9832 46.2904L15.5938 46.5444ZM16.8436 49.4531L4.07867 51.7873L4.33272 53.1766L17.0977 50.8424L16.8436 49.4531ZM4.90037 52.3549L1.08471 31.488L-0.304634 31.7421L3.51102 52.609L4.90037 52.3549Z" fill="black"/>
</g>
<g filter="url(#filter5_d_2_816)">
<path d="M35.8131 20.3593L35.5832 20.4168C35.2765 21.0635 34.8548 21.6576 34.3182 22.1989C33.8007 22.7355 33.0533 23.1259 32.0759 23.3702C31.3476 23.5522 30.6266 23.6001 29.9127 23.5138C29.2228 23.4419 28.5856 23.255 28.0011 22.9531C27.4166 22.6512 26.916 22.2368 26.4992 21.7097C26.0824 21.1827 25.7854 20.5646 25.6082 19.8555C25.4262 19.1273 25.4071 18.4398 25.5508 17.793C25.6898 17.127 25.9654 16.5186 26.3774 15.9676C26.7895 15.4167 27.3141 14.9496 27.9514 14.5664C28.603 14.1592 29.3408 13.8526 30.1649 13.6466C31.0848 13.4167 31.861 13.3042 32.4934 13.309C33.121 13.2947 33.6456 13.3163 34.0673 13.3738L33.9595 12.9426C33.7727 12.1952 33.3224 11.6561 32.6085 11.3255C31.8899 10.9757 31.0898 10.911 30.2082 11.1313C28.905 11.457 27.9396 12.2786 27.3118 13.5961L24.1139 12.4101C25.1393 10.1584 26.9456 8.70921 29.5329 8.06259C31.7176 7.51656 33.5143 7.61729 34.9228 8.36479C36.3265 9.09312 37.2799 10.4634 37.7828 12.4757L39.8951 20.9273L36.1867 21.8541L35.8131 20.3593ZM34.757 16.1335C34.2635 16.0328 33.7628 15.9849 33.255 15.9897C32.7615 15.9705 32.2369 16.0303 31.6811 16.1692C30.7804 16.3943 30.1312 16.7704 29.7335 17.2974C29.3502 17.8004 29.2303 18.3394 29.374 18.9143C29.5177 19.4893 29.8627 19.8917 30.4088 20.1218C30.9742 20.347 31.5635 20.3829 32.1767 20.2297C32.675 20.1051 33.1134 19.9039 33.4919 19.6261C33.8656 19.3291 34.1603 19.0009 34.3759 18.6416C34.6059 18.2583 34.7497 17.8559 34.8072 17.4343C34.8791 16.9887 34.8624 16.5551 34.757 16.1335Z" fill="#57FFC2"/>
<path d="M35.8131 20.3593L36.4982 20.188L36.327 19.5029L35.6419 19.6742L35.8131 20.3593ZM35.5832 20.4167L35.4119 19.7316L35.0881 19.8126L34.9451 20.1142L35.5832 20.4167ZM34.3182 22.1989L33.8166 21.7017L33.8099 21.7087L34.3182 22.1989ZM29.9127 23.5138L29.9975 22.8126L29.9859 22.8114L29.9127 23.5138ZM28.0011 22.9531L27.6771 23.5806L28.0011 22.9531ZM26.4992 21.7097L27.0531 21.2717L27.0531 21.2717L26.4992 21.7097ZM25.5508 17.793L26.2403 17.9462L26.2421 17.9372L25.5508 17.793ZM26.3774 15.9676L26.9429 16.3906L26.9429 16.3906L26.3774 15.9676ZM27.9514 14.5664L28.3154 15.1716L28.3256 15.1652L27.9514 14.5664ZM32.4934 13.309L32.488 14.0152L32.4988 14.0153L32.5095 14.015L32.4934 13.309ZM34.0673 13.3738L33.9718 14.0735L35.0053 14.2145L34.7524 13.2026L34.0673 13.3738ZM32.6085 11.3255L32.2994 11.9606L32.3117 11.9663L32.6085 11.3255ZM27.3118 13.5961L27.0663 14.2582L27.6717 14.4828L27.9494 13.8999L27.3118 13.5961ZM24.1139 12.4101L23.4712 12.1174L23.1566 12.8083L23.8683 13.0722L24.1139 12.4101ZM34.9228 8.36479L34.5917 8.9886L34.5976 8.99162L34.9228 8.36479ZM39.8951 20.9273L40.0663 21.6124L40.7514 21.4412L40.5802 20.7561L39.8951 20.9273ZM36.1867 21.8541L35.5016 22.0253L35.6728 22.7105L36.358 22.5392L36.1867 21.8541ZM34.757 16.1335L35.4421 15.9623L35.3342 15.5305L34.8981 15.4415L34.757 16.1335ZM33.255 15.9897L33.2275 16.6953L33.2446 16.696L33.2616 16.6958L33.255 15.9897ZM29.7335 17.2974L30.2952 17.7254L30.2972 17.7228L29.7335 17.2974ZM30.4088 20.1218L30.1347 20.7727L30.1475 20.7778L30.4088 20.1218ZM33.4919 19.6261L33.9098 20.1954L33.9207 20.1874L33.9313 20.1789L33.4919 19.6261ZM34.3759 18.6416L34.9815 19.005L34.3759 18.6416ZM34.8072 17.4343L34.11 17.3218L34.1087 17.3303L34.1075 17.3388L34.8072 17.4343ZM35.6419 19.6742L35.4119 19.7316L35.7544 21.1019L35.9844 21.0444L35.6419 19.6742ZM34.9451 20.1142C34.6747 20.6843 34.3008 21.2134 33.8167 21.7018L34.8197 22.6961C35.4089 22.1018 35.8782 21.4428 36.2212 20.7193L34.9451 20.1142ZM33.8099 21.7087C33.4112 22.1221 32.7974 22.462 31.9047 22.6851L32.2471 24.0553C33.3092 23.7899 34.1902 23.3489 34.8265 22.6892L33.8099 21.7087ZM31.9047 22.6851C31.2563 22.8471 30.622 22.8882 29.9975 22.8127L29.828 24.2149C30.6312 24.312 31.439 24.2573 32.2471 24.0553L31.9047 22.6851ZM29.9859 22.8114C29.3788 22.7481 28.8273 22.585 28.3252 22.3257L27.6771 23.5806C28.344 23.925 29.0669 24.1356 29.8395 24.2162L29.9859 22.8114ZM28.3252 22.3257C27.8319 22.0709 27.409 21.7217 27.0531 21.2717L25.9453 22.1478C26.423 22.7518 27.0014 23.2316 27.6771 23.5806L28.3252 22.3257ZM27.0531 21.2717C26.7038 20.83 26.4484 20.3048 26.2933 19.6843L24.9231 20.0268C25.1224 20.8245 25.461 21.5354 25.9453 22.1478L27.0531 21.2717ZM26.2933 19.6843C26.1343 19.0482 26.1232 18.4725 26.2402 17.9462L24.8615 17.6397C24.6909 18.407 24.718 19.2064 24.9231 20.0268L26.2933 19.6843ZM26.2421 17.9372C26.3598 17.3734 26.5919 16.8599 26.9429 16.3906L25.8119 15.5447C25.3388 16.1772 25.0199 16.8806 24.8595 17.6487L26.2421 17.9372ZM26.9429 16.3906C27.296 15.9186 27.7501 15.5115 28.3153 15.1715L27.5874 13.9612C26.8782 14.3877 26.283 14.9148 25.8119 15.5447L26.9429 16.3906ZM28.3256 15.1652C28.9083 14.8011 29.5763 14.5216 30.3361 14.3317L29.9937 12.9615C29.1053 13.1835 28.2977 13.5172 27.5771 13.9675L28.3256 15.1652ZM30.3361 14.3317C31.224 14.1098 31.9368 14.011 32.488 14.0152L32.4988 12.6028C31.7852 12.5974 30.9457 12.7236 29.9937 12.9615L30.3361 14.3317ZM32.5095 14.015C33.1156 14.0012 33.6 14.0228 33.9718 14.0735L34.1627 12.6741C33.6912 12.6098 33.1264 12.5882 32.4773 12.603L32.5095 14.015ZM34.7524 13.2026L34.6446 12.7714L33.2744 13.1138L33.3821 13.545L34.7524 13.2026ZM34.6446 12.7714C34.4048 11.8117 33.8082 11.1029 32.9053 10.6847L32.3117 11.9663C32.8365 12.2094 33.1406 12.5786 33.2744 13.1138L34.6446 12.7714ZM32.9176 10.6905C32.0294 10.2582 31.0562 10.1915 30.037 10.4462L30.3794 11.8164C31.1234 11.6305 31.7504 11.6932 32.2994 11.9605L32.9176 10.6905ZM30.037 10.4462C28.5099 10.8279 27.3838 11.8032 26.6743 13.2924L27.9494 13.8999C28.4953 12.754 29.3001 12.0862 30.3794 11.8164L30.037 10.4462ZM27.5574 12.934L24.3594 11.748L23.8683 13.0722L27.0663 14.2582L27.5574 12.934ZM24.7566 12.7028C25.6852 10.6637 27.3069 9.34682 29.7041 8.74771L29.3616 7.37748C26.5843 8.0716 24.5935 9.65305 23.4712 12.1174L24.7566 12.7028ZM29.7041 8.74771C31.7891 8.2266 33.3906 8.35116 34.5917 8.98858L35.2538 7.741C33.6379 6.88342 31.6462 6.80651 29.3616 7.37748L29.7041 8.74771ZM34.5976 8.99162C35.7697 9.59979 36.6276 10.7662 37.0977 12.6469L38.4679 12.3045C37.9321 10.1607 36.8834 8.58646 35.248 7.73795L34.5976 8.99162ZM37.0977 12.6469L39.21 21.0985L40.5802 20.7561L38.4679 12.3045L37.0977 12.6469ZM39.7238 20.2422L36.0155 21.169L36.358 22.5392L40.0663 21.6124L39.7238 20.2422ZM36.8718 21.6829L36.4982 20.188L35.128 20.5305L35.5016 22.0253L36.8718 21.6829ZM34.8981 15.4415C34.3556 15.3309 33.8054 15.2783 33.2484 15.2835L33.2616 16.6958C33.7203 16.6915 34.1714 16.7348 34.6159 16.8254L34.8981 15.4415ZM33.2824 15.284C32.7124 15.2618 32.1205 15.3315 31.5099 15.4841L31.8523 16.8543C32.3533 16.7291 32.8106 16.6791 33.2275 16.6953L33.2824 15.284ZM31.5099 15.4841C30.5151 15.7327 29.6976 16.1726 29.1698 16.872L30.2972 17.7228C30.5648 17.3682 31.0457 17.0559 31.8523 16.8543L31.5099 15.4841ZM29.1718 16.8694C28.6685 17.5298 28.4893 18.2869 28.6889 19.0856L30.0592 18.7431C29.9714 18.3919 30.0318 18.071 30.2952 17.7254L29.1718 16.8694ZM28.6889 19.0856C28.8865 19.8761 29.3837 20.4563 30.1347 20.7726L30.6829 19.4709C30.3416 19.3272 30.1489 19.1024 30.0592 18.7431L28.6889 19.0856ZM30.1475 20.7778C30.856 21.0601 31.5969 21.1025 32.3479 20.9148L32.0055 19.5446C31.53 19.6634 31.0923 19.6339 30.6702 19.4657L30.1475 20.7778ZM32.3479 20.9148C32.9268 20.7701 33.4507 20.5324 33.9098 20.1954L33.074 19.0568C32.7761 19.2755 32.4232 19.4402 32.0055 19.5446L32.3479 20.9148ZM33.9313 20.1789C34.3622 19.8365 34.7166 19.4462 34.9815 19.005L33.7704 18.2782C33.604 18.5555 33.3691 18.8216 33.0525 19.0732L33.9313 20.1789ZM34.9815 19.005C35.2581 18.5439 35.4358 18.0508 35.5069 17.5297L34.1075 17.3388C34.0635 17.6609 33.9537 17.9727 33.7704 18.2782L34.9815 19.005ZM35.5044 17.5468C35.5909 17.0105 35.5716 16.4802 35.4421 15.9623L34.0719 16.3047C34.1532 16.63 34.1673 16.9669 34.11 17.3218L35.5044 17.5468Z" fill="black"/>
</g>
<g filter="url(#filter6_d_2_816)">
<path d="M39.1226 49.3867L38.8861 49.3718C38.4927 49.9605 37.9078 50.4481 37.1314 50.8345C36.355 51.221 35.4149 51.3794 34.311 51.3098C33.3845 51.2514 32.5093 51.0082 31.6853 50.5803C30.8822 50.1338 30.1766 49.555 29.5683 48.8438C28.981 48.1141 28.5299 47.2644 28.2151 46.2946C27.9002 45.3248 27.7782 44.2781 27.849 43.1545C27.9198 42.0309 28.1723 41.0078 28.6065 40.0852C29.0407 39.1627 29.5943 38.3861 30.2673 37.7557C30.9613 37.1068 31.7341 36.6211 32.5856 36.2988C33.4581 35.958 34.3576 35.8168 35.284 35.8752C36.3879 35.9448 37.3007 36.22 38.0224 36.7009C38.7442 37.1818 39.2632 37.739 39.5795 38.3724L39.816 38.3873L39.71 36.3026L40.1107 29.9455L43.9842 30.1897L42.6495 51.3605L39.0126 51.1313L39.1226 49.3867ZM35.3349 47.7824C35.8474 47.8147 36.336 47.7565 36.8005 47.6076C37.286 47.4403 37.7174 47.1905 38.0946 46.858C38.4718 46.5256 38.7849 46.1099 39.0341 45.6111C39.2832 45.1122 39.4283 44.5375 39.4693 43.887C39.5103 43.2365 39.4386 42.6482 39.254 42.122C39.0695 41.5958 38.811 41.1441 38.4786 40.7669C38.1461 40.3898 37.7489 40.0975 37.287 39.8903C36.8461 39.6646 36.3693 39.5356 35.8568 39.5033C35.3443 39.471 34.8453 39.5385 34.3598 39.7058C33.894 39.8743 33.4725 40.1248 33.0953 40.4573C32.7181 40.7897 32.4049 41.2054 32.1558 41.7042C31.9066 42.2031 31.7622 42.7679 31.7224 43.3987C31.6827 44.0295 31.755 44.6079 31.9396 45.1341C32.1241 45.6603 32.3826 46.112 32.715 46.4892C33.0475 46.8664 33.4342 47.1678 33.8751 47.3935C34.3358 47.6205 34.8224 47.7501 35.3349 47.7824Z" fill="#57FFC2"/>
<path d="M39.1226 49.3867L39.8274 49.4312L39.8718 48.7264L39.167 48.6819L39.1226 49.3867ZM38.8861 49.3718L38.9305 48.667L38.5247 48.6414L38.2989 48.9795L38.8861 49.3718ZM37.1314 50.8345L37.4461 51.4668L37.1314 50.8345ZM31.6853 50.5803L31.3422 51.1975L31.3509 51.2024L31.3598 51.207L31.6853 50.5803ZM29.5683 48.8438L29.0182 49.2866L29.0248 49.2948L29.0316 49.3028L29.5683 48.8438ZM28.2151 46.2946L27.5434 46.5126L28.2151 46.2946ZM28.6065 40.0852L29.2455 40.3859L28.6065 40.0852ZM30.2673 37.7557L29.785 37.2399L29.7846 37.2403L30.2673 37.7557ZM32.5856 36.2988L32.8356 36.9593L32.8426 36.9566L32.5856 36.2988ZM38.0224 36.7009L38.414 36.1132L38.0224 36.7009ZM39.5795 38.3724L38.9477 38.6879L39.1293 39.0516L39.535 39.0772L39.5795 38.3724ZM39.816 38.3873L39.7716 39.0921L40.5615 39.1419L40.5213 38.3515L39.816 38.3873ZM39.71 36.3026L39.0052 36.2582L39.0026 36.2984L39.0047 36.3385L39.71 36.3026ZM40.1107 29.9455L40.1551 29.2407L39.4504 29.1963L39.4059 29.901L40.1107 29.9455ZM43.9842 30.1897L44.6889 30.2341L44.7334 29.5293L44.0286 29.4849L43.9842 30.1897ZM42.6495 51.3605L42.6051 52.0653L43.3099 52.1097L43.3543 51.405L42.6495 51.3605ZM39.0126 51.1313L38.3078 51.0868L38.2634 51.7916L38.9682 51.836L39.0126 51.1313ZM36.8005 47.6076L37.016 48.2801L37.0233 48.2778L37.0306 48.2753L36.8005 47.6076ZM38.0946 46.858L38.5615 47.3878L38.0946 46.858ZM39.0341 45.6111L39.6659 45.9266L39.0341 45.6111ZM37.287 39.8903L36.9653 40.5189L36.9814 40.5272L36.998 40.5346L37.287 39.8903ZM34.3598 39.7058L34.1297 39.038L34.1195 39.0417L34.3598 39.7058ZM33.0953 40.4573L33.5622 40.987L33.5622 40.987L33.0953 40.4573ZM32.1558 41.7042L31.524 41.3887L32.1558 41.7042ZM31.9396 45.1341L31.2732 45.3678L31.9396 45.1341ZM32.715 46.4892L33.2448 46.0222L32.715 46.4892ZM33.8751 47.3935L33.5533 48.0222L33.563 48.027L33.8751 47.3935ZM39.167 48.6819L38.9305 48.667L38.8416 50.0766L39.0782 50.0915L39.167 48.6819ZM38.2989 48.9795C37.9877 49.4452 37.5076 49.8585 36.8168 50.2023L37.4461 51.4668C38.3081 51.0377 38.9977 50.4759 39.4732 49.7641L38.2989 48.9795ZM36.8168 50.2023C36.1782 50.5202 35.3689 50.6689 34.3554 50.605L34.2666 52.0146C35.4609 52.0899 36.5318 51.9218 37.4461 51.4668L36.8168 50.2023ZM34.3554 50.605C33.5271 50.5528 32.7476 50.3362 32.0108 49.9536L31.3598 51.207C32.271 51.6802 33.242 51.95 34.2666 52.0146L34.3554 50.605ZM32.0284 49.963C31.3002 49.5582 30.6597 49.0334 30.105 48.3848L29.0316 49.3028C29.6935 50.0766 30.4643 50.7095 31.3422 51.1975L32.0284 49.963ZM30.1185 48.401C29.5896 47.7439 29.1775 46.9719 28.8867 46.0765L27.5434 46.5126C27.8824 47.5568 28.3725 48.4843 29.0182 49.2866L30.1185 48.401ZM28.8867 46.0765C28.6021 45.1997 28.488 44.2429 28.5538 43.1989L27.1442 43.11C27.0684 44.3132 27.1983 45.4498 27.5434 46.5126L28.8867 46.0765ZM28.5538 43.1989C28.6196 42.1549 28.8529 41.22 29.2455 40.3859L27.9675 39.7845C27.4917 40.7956 27.22 41.9069 27.1442 43.11L28.5538 43.1989ZM29.2455 40.3859C29.6456 39.5356 30.1488 38.8344 30.7501 38.2711L29.7846 37.2403C29.0398 37.9379 28.4357 38.7897 27.9675 39.7845L29.2455 40.3859ZM30.7497 38.2715C31.3794 37.6827 32.074 37.2476 32.8356 36.9593L32.3356 35.6384C31.3942 35.9947 30.5433 36.5308 29.785 37.2399L30.7497 38.2715ZM32.8426 36.9566C33.6201 36.6529 34.4168 36.5281 35.2396 36.58L35.3285 35.1704C34.2984 35.1055 33.2961 35.2631 32.3287 35.641L32.8426 36.9566ZM35.2396 36.58C36.253 36.6439 37.0373 36.8931 37.6309 37.2886L38.414 36.1132C37.5641 35.547 36.5228 35.2457 35.3285 35.1704L35.2396 36.58ZM37.6309 37.2886C38.2731 37.7165 38.6975 38.1868 38.9477 38.6879L40.2113 38.057C39.8289 37.2911 39.2153 36.6471 38.414 36.1132L37.6309 37.2886ZM39.535 39.0772L39.7716 39.0921L39.8604 37.6825L39.6239 37.6676L39.535 39.0772ZM40.5213 38.3515L40.4152 36.2668L39.0047 36.3385L39.1107 38.4232L40.5213 38.3515ZM40.4147 36.3471L40.8155 29.9899L39.4059 29.901L39.0052 36.2582L40.4147 36.3471ZM40.0663 30.6503L43.9397 30.8945L44.0286 29.4849L40.1551 29.2407L40.0663 30.6503ZM43.2794 30.1452L41.9447 51.3161L43.3543 51.405L44.6889 30.2341L43.2794 30.1452ZM42.694 50.6557L39.0571 50.4265L38.9682 51.836L42.6051 52.0653L42.694 50.6557ZM39.7174 51.1757L39.8274 49.4312L38.4178 49.3423L38.3078 51.0868L39.7174 51.1757ZM35.2905 48.4872C35.8862 48.5247 36.4632 48.4572 37.016 48.2801L36.5851 46.9351C36.2087 47.0557 35.8087 47.1047 35.3793 47.0776L35.2905 48.4872ZM37.0306 48.2753C37.6014 48.0786 38.1136 47.7825 38.5615 47.3878L37.6276 46.3282C37.3212 46.5984 36.9707 46.8021 36.5705 46.94L37.0306 48.2753ZM38.5615 47.3878C39.014 46.989 39.3805 46.4979 39.6659 45.9266L38.4023 45.2955C38.1894 45.7219 37.9295 46.0621 37.6276 46.3282L38.5615 47.3878ZM39.6659 45.9266C39.9638 45.3301 40.1281 44.6606 40.1741 43.9315L38.7645 43.8426C38.7285 44.4145 38.6027 44.8943 38.4023 45.2955L39.6659 45.9266ZM40.1741 43.9315C40.2201 43.2024 40.1411 42.5175 39.9204 41.8883L38.5876 42.3557C38.7361 42.7789 38.8006 43.2707 38.7645 43.8426L40.1741 43.9315ZM39.9204 41.8883C39.7091 41.2857 39.4072 40.7525 39.0084 40.3L37.9488 41.2339C38.2149 41.5358 38.4299 41.906 38.5876 42.3557L39.9204 41.8883ZM39.0084 40.3C38.6088 39.8466 38.1293 39.4942 37.5761 39.246L36.998 40.5346C37.3686 40.7009 37.6835 40.9329 37.9488 41.2339L39.0084 40.3ZM37.6088 39.2617C37.0784 38.9902 36.5068 38.8367 35.9013 38.7985L35.8124 40.2081C36.2319 40.2345 36.6137 40.339 36.9653 40.5189L37.6088 39.2617ZM35.9013 38.7985C35.2957 38.7603 34.7034 38.8404 34.1297 39.0381L34.5898 40.3734C34.9872 40.2365 35.3929 40.1816 35.8124 40.2081L35.9013 38.7985ZM34.1195 39.0417C33.5691 39.2409 33.071 39.5373 32.6283 39.9275L33.5622 40.987C33.874 40.7123 34.2188 40.5078 34.6001 40.3698L34.1195 39.0417ZM32.6283 39.9275C32.1759 40.3263 31.8094 40.8173 31.524 41.3887L32.7876 42.0197C33.0005 41.5934 33.2603 41.2531 33.5622 40.987L32.6283 39.9275ZM31.524 41.3887C31.2274 41.9827 31.0626 42.6416 31.0176 43.3542L32.4272 43.4431C32.4618 42.8941 32.5859 42.4235 32.7876 42.0197L31.524 41.3887ZM31.0176 43.3542C30.9727 44.0668 31.0535 44.7413 31.2732 45.3678L32.606 44.9004C32.4566 44.4746 32.3926 43.9921 32.4272 43.4431L31.0176 43.3542ZM31.2732 45.3678C31.4845 45.9705 31.7864 46.5036 32.1853 46.9561L33.2448 46.0222C32.9787 45.7203 32.7637 45.3502 32.606 44.9004L31.2732 45.3678ZM32.1853 46.9561C32.5754 47.3988 33.0324 47.7555 33.5534 48.0221L34.1969 46.7649C33.836 46.5802 33.5196 46.334 33.2448 46.0222L32.1853 46.9561ZM33.563 48.027C34.1074 48.2952 34.6849 48.449 35.2905 48.4872L35.3793 47.0776C34.9599 47.0512 34.5642 46.9458 34.1872 46.76L33.563 48.027Z" fill="black"/>
</g>
</g>
<defs>
<filter id="filter0_d_2_816" x="11.6146" y="31.9384" width="15.07" height="16.9294" filterUnits="userSpaceOnUse" color-interpolation-filters="sRGB">
<feFlood flood-opacity="0" result="BackgroundImageFix"/>
<feColorMatrix in="SourceAlpha" type="matrix" values="0 0 0 0 0 0 0 0 0 0 0 0 0 0 0 0 0 0 127 0" result="hardAlpha"/>
<feOffset dx="-1.41238" dy="1.41238"/>
<feColorMatrix type="matrix" values="0 0 0 0 0 0 0 0 0 0 0 0 0 0 0 0 0 0 1 0"/>
<feBlend mode="normal" in2="BackgroundImageFix" result="effect1_dropShadow_2_816"/>
<feBlend mode="normal" in="SourceGraphic" in2="effect1_dropShadow_2_816" result="shape"/>
</filter>
<filter id="filter1_d_2_816" x="42.824" y="34.3323" width="15.7023" height="18.025" filterUnits="userSpaceOnUse" color-interpolation-filters="sRGB">
<feFlood flood-opacity="0" result="BackgroundImageFix"/>
<feColorMatrix in="SourceAlpha" type="matrix" values="0 0 0 0 0 0 0 0 0 0 0 0 0 0 0 0 0 0 127 0" result="hardAlpha"/>
<feOffset dx="-1.41238" dy="1.41238"/>
<feColorMatrix type="matrix" values="0 0 0 0 0 0 0 0 0 0 0 0 0 0 0 0 0 0 1 0"/>
<feBlend mode="normal" in2="BackgroundImageFix" result="effect1_dropShadow_2_816"/>
<feBlend mode="normal" in="SourceGraphic" in2="effect1_dropShadow_2_816" result="shape"/>
</filter>
<filter id="filter2_d_2_816" x="-1.40173" y="2.61194" width="24.6076" height="24.6869" filterUnits="userSpaceOnUse" color-interpolation-filters="sRGB">
<feFlood flood-opacity="0" result="BackgroundImageFix"/>
<feColorMatrix in="SourceAlpha" type="matrix" values="0 0 0 0 0 0 0 0 0 0 0 0 0 0 0 0 0 0 127 0" result="hardAlpha"/>
<feOffset dx="-1.41238" dy="1.41238"/>
<feColorMatrix type="matrix" values="0 0 0 0 0 0 0 0 0 0 0 0 0 0 0 0 0 0 1 0"/>
<feBlend mode="normal" in2="BackgroundImageFix" result="effect1_dropShadow_2_816"/>
<feBlend mode="normal" in="SourceGraphic" in2="effect1_dropShadow_2_816" result="shape"/>
</filter>
<filter id="filter3_d_2_816" x="36.7264" y="2.47858" width="18.9672" height="24.6345" filterUnits="userSpaceOnUse" color-interpolation-filters="sRGB">
<feFlood flood-opacity="0" result="BackgroundImageFix"/>
<feColorMatrix in="SourceAlpha" type="matrix" values="0 0 0 0 0 0 0 0 0 0 0 0 0 0 0 0 0 0 127 0" result="hardAlpha"/>
<feOffset dx="-1.41238" dy="1.41238"/>
<feColorMatrix type="matrix" values="0 0 0 0 0 0 0 0 0 0 0 0 0 0 0 0 0 0 1 0"/>
<feBlend mode="normal" in2="BackgroundImageFix" result="effect1_dropShadow_2_816"/>
<feBlend mode="normal" in="SourceGraphic" in2="effect1_dropShadow_2_816" result="shape"/>
</filter>
<filter id="filter4_d_2_816" x="-1.02235" y="29.2809" width="17.993" height="24.6134" filterUnits="userSpaceOnUse" color-interpolation-filters="sRGB">
<feFlood flood-opacity="0" result="BackgroundImageFix"/>
<feColorMatrix in="SourceAlpha" type="matrix" values="0 0 0 0 0 0 0 0 0 0 0 0 0 0 0 0 0 0 127 0" result="hardAlpha"/>
<feOffset dx="-1.41238" dy="1.41238"/>
<feColorMatrix type="matrix" values="0 0 0 0 0 0 0 0 0 0 0 0 0 0 0 0 0 0 1 0"/>
<feBlend mode="normal" in2="BackgroundImageFix" result="effect1_dropShadow_2_816"/>
<feBlend mode="normal" in="SourceGraphic" in2="effect1_dropShadow_2_816" result="shape"/>
</filter>
<filter id="filter5_d_2_816" x="21.6524" y="6.38135" width="18.3576" height="19.716" filterUnits="userSpaceOnUse" color-interpolation-filters="sRGB">
<feFlood flood-opacity="0" result="BackgroundImageFix"/>
<feColorMatrix in="SourceAlpha" type="matrix" values="0 0 0 0 0 0 0 0 0 0 0 0 0 0 0 0 0 0 127 0" result="hardAlpha"/>
<feOffset dx="-1.41238" dy="1.41238"/>
<feColorMatrix type="matrix" values="0 0 0 0 0 0 0 0 0 0 0 0 0 0 0 0 0 0 1 0"/>
<feBlend mode="normal" in2="BackgroundImageFix" result="effect1_dropShadow_2_816"/>
<feBlend mode="normal" in="SourceGraphic" in2="effect1_dropShadow_2_816" result="shape"/>
</filter>
<filter id="filter6_d_2_816" x="25.9501" y="29.2278" width="18.0341" height="24.0182" filterUnits="userSpaceOnUse" color-interpolation-filters="sRGB">
<feFlood flood-opacity="0" result="BackgroundImageFix"/>
<feColorMatrix in="SourceAlpha" type="matrix" values="0 0 0 0 0 0 0 0 0 0 0 0 0 0 0 0 0 0 127 0" result="hardAlpha"/>
<feOffset dx="-1.41238" dy="1.41238"/>
<feColorMatrix type="matrix" values="0 0 0 0 0 0 0 0 0 0 0 0 0 0 0 0 0 0 1 0"/>
<feBlend mode="normal" in2="BackgroundImageFix" result="effect1_dropShadow_2_816"/>
<feBlend mode="normal" in="SourceGraphic" in2="effect1_dropShadow_2_816" result="shape"/>
</filter>
<clipPath id="clip0_2_816">
<rect width="56" height="56" fill="white"/>
</clipPath>
</defs>
</svg>
