<svg width="19" height="24" viewBox="0 0 19 24" fill="none" xmlns="http://www.w3.org/2000/svg">
<path d="M9.67969 15.5088C10.2231 15.5088 10.6538 15.0781 10.6538 14.5552V4.88574L10.5718 3.4502L11.146 4.17822L12.4482 5.5625C12.6123 5.74707 12.8481 5.84961 13.084 5.84961C13.5557 5.84961 13.9453 5.51123 13.9453 5.01904C13.9453 4.77295 13.853 4.58838 13.6787 4.41406L10.4282 1.28662C10.1821 1.04053 9.93604 0.958496 9.67969 0.958496C9.42334 0.958496 9.1875 1.04053 8.93115 1.28662L5.69092 4.41406C5.5166 4.58838 5.41406 4.77295 5.41406 5.01904C5.41406 5.51123 5.80371 5.84961 6.26514 5.84961C6.51123 5.84961 6.74707 5.74707 6.92139 5.5625L8.21338 4.17822L8.79785 3.4502L8.71582 4.88574V14.5552C8.71582 15.0781 9.14648 15.5088 9.67969 15.5088ZM4.0708 23.3223H15.2578C17.4009 23.3223 18.5186 22.2046 18.5186 20.0923V10.6177C18.5186 8.50537 17.4009 7.3877 15.2578 7.3877H12.6841V9.48975H15.0938C15.9448 9.48975 16.4268 9.93066 16.4268 10.833V19.877C16.4268 20.7793 15.9448 21.2202 15.0938 21.2202H4.24512C3.38379 21.2202 2.91211 20.7793 2.91211 19.877V10.833C2.91211 9.93066 3.38379 9.48975 4.24512 9.48975H6.68555V7.3877H4.0708C1.94824 7.3877 0.810059 8.50537 0.810059 10.6177V20.0923C0.810059 22.2046 1.94824 23.3223 4.0708 23.3223Z" fill="#3478F6"/>
</svg>
