<svg width="118" height="118" viewBox="0 0 118 118" fill="none" xmlns="http://www.w3.org/2000/svg">
<rect width="118" height="118" fill="url(#paint0_linear_1099_340)"/>
<path fill-rule="evenodd" clip-rule="evenodd" d="M81.125 0H81.5859V7.83594H109.838L110.001 7.67297L110.327 7.99891L110.164 8.16186V36.4141H118V36.875H110.164V58.7695H118V59.2305H110.164V81.125H118V81.5859H110.164V109.838L110.327 110.001L110.001 110.327L109.838 110.164H81.5859V118H81.125V110.164H59.2305V118H58.7695V110.164H36.875V118H36.4141V110.164H8.16186L7.99889 110.327L7.67296 110.001L7.83594 109.838V81.5859H0V81.125H7.83594V59.2305H0V58.7695H7.83594V36.875H0V36.4141H7.83594V8.16188L7.67296 7.99891L7.99889 7.67297L8.16186 7.83594H36.4141V0H36.875V7.83594H58.7695V0H59.2305V7.83594H81.125V0ZM8.29739 59.2305C8.33231 67.0777 10.1499 74.5039 13.366 81.125H36.1522C30.6573 75.4517 27.2565 67.7381 27.1961 59.2305H8.29739ZM27.1961 58.7695H8.29739C8.33231 50.9223 10.1499 43.4961 13.366 36.875H36.1522C30.6573 42.5483 27.2565 50.2619 27.1961 58.7695ZM27.6571 59.2305C27.7172 67.5777 31.0402 75.1491 36.4141 80.7327V59.2305H27.6571ZM36.4141 58.7695H27.6571C27.7172 50.4223 31.0402 42.8508 36.4141 37.2673V58.7695ZM36.875 59.2305V80.7991L58.4436 59.2305H36.875ZM58.4436 58.7695H36.875V37.2009L58.4436 58.7695ZM59.5564 59.2305L81.125 80.7991V59.2305H59.5564ZM81.125 58.7695H59.5564L81.125 37.2009V58.7695ZM81.5859 59.2305V80.7327C86.9598 75.1491 90.2828 67.5777 90.3429 59.2305H81.5859ZM90.3429 58.7695H81.5859V37.2673C86.9598 42.8508 90.2828 50.4223 90.3429 58.7695ZM90.8039 59.2305C90.7435 67.7381 87.3427 75.4517 81.8479 81.125H104.634C107.85 74.5039 109.668 67.0777 109.703 59.2305H90.8039ZM109.703 58.7695H90.8039C90.7435 50.2619 87.3427 42.5483 81.8479 36.875H104.634C107.85 43.4961 109.668 50.9223 109.703 58.7695ZM81.125 104.634C74.5039 107.85 67.0777 109.668 59.2305 109.703V90.8039C67.7381 90.7435 75.4517 87.3427 81.125 81.8478V104.634ZM80.7327 81.5859C75.1491 86.9598 67.5777 90.2828 59.2305 90.3429V81.5859H80.7327ZM58.7695 90.3429V81.5859H37.2673C42.8508 86.9598 50.4223 90.2828 58.7695 90.3429ZM80.7991 81.125H59.2305V59.5564L80.7991 81.125ZM58.7695 81.125V59.5564L37.2009 81.125H58.7695ZM80.7991 36.875L59.2305 58.4436V36.875H80.7991ZM58.7695 58.4436V36.875H37.2009L58.7695 58.4436ZM80.7327 36.4141H59.2305V27.6571C67.5777 27.7172 75.1491 31.0402 80.7327 36.4141ZM58.7695 36.4141V27.6571C50.4223 27.7172 42.8508 31.0402 37.2673 36.4141H58.7695ZM81.125 36.1522C75.4517 30.6573 67.7381 27.2565 59.2305 27.1961V8.29739C67.0777 8.33231 74.5039 10.1499 81.125 13.366V36.1522ZM58.7695 27.1961V8.29739C50.9223 8.33231 43.4961 10.1499 36.875 13.366V36.1522C42.5483 30.6573 50.2619 27.2565 58.7695 27.1961ZM58.7695 109.703V90.8039C50.2619 90.7435 42.5483 87.3427 36.875 81.8479V104.634C43.4961 107.85 50.9223 109.668 58.7695 109.703ZM8.29688 36.875V52.1027C9.02277 46.7157 10.587 41.5946 12.854 36.875H8.29688ZM13.0782 36.4141H8.29688V8.62282L22.6589 22.9849C18.7848 26.8939 15.5369 31.4246 13.0782 36.4141ZM36.0881 36.4141H13.5928C16.0167 31.5504 19.199 27.1311 22.9849 23.3108L36.0881 36.4141ZM104.407 36.4141H81.9119L95.0151 23.3108C98.801 27.131 101.983 31.5504 104.407 36.4141ZM105.146 36.875C107.413 41.5946 108.977 46.7157 109.703 52.1027V36.875H105.146ZM109.703 36.4141H104.922C102.463 31.4246 99.2152 26.8939 95.341 22.9849L109.703 8.62279V36.4141ZM109.703 65.8973V81.125H105.146C107.413 76.4054 108.977 71.2843 109.703 65.8973ZM104.407 81.5859H81.9119L95.0151 94.6892C98.801 90.869 101.983 86.4496 104.407 81.5859ZM36.0881 81.5859H13.5928C16.0167 86.4496 19.199 90.8689 22.9849 94.6892L36.0881 81.5859ZM8.29688 65.8973C9.02277 71.2843 10.587 76.4054 12.854 81.125H8.29688V65.8973ZM13.0782 81.5859H8.29688V109.377L22.6589 95.0151C18.7848 91.1061 15.5369 86.5754 13.0782 81.5859ZM109.703 81.5859H104.922C102.463 86.5754 99.2152 91.1061 95.341 95.0151L109.703 109.377V81.5859ZM36.4141 8.29688H8.62279L22.9849 22.659C26.8939 18.7848 31.4246 15.5369 36.4141 13.0782V8.29688ZM36.875 12.854V8.29688H52.1027C46.7157 9.02277 41.5946 10.587 36.875 12.854ZM36.4141 13.5928C31.5504 16.0167 27.131 19.199 23.3108 22.9849L36.4141 36.0881V13.5928ZM36.4141 81.9119V104.407C31.5504 101.983 27.131 98.801 23.3108 95.0151L36.4141 81.9119ZM36.4141 104.922C31.4246 102.463 26.8939 99.2152 22.9849 95.341L8.62279 109.703H36.4141V104.922ZM36.875 109.703V105.146C41.5946 107.413 46.7157 108.977 52.1027 109.703H36.875ZM65.8973 8.29688H81.125V12.854C76.4054 10.587 71.2843 9.02277 65.8973 8.29688ZM81.5859 8.29688V13.0782C86.5754 15.5369 91.1061 18.7848 95.0151 22.6589L109.377 8.29688H81.5859ZM81.5859 13.5928V36.0881L94.6892 22.9849C90.8689 19.199 86.4496 16.0167 81.5859 13.5928ZM81.5859 81.9119V104.407C86.4496 101.983 90.8689 98.801 94.6892 95.0151L81.5859 81.9119ZM65.8973 109.703C71.2843 108.977 76.4054 107.413 81.125 105.146V109.703H65.8973ZM81.5859 104.922V109.703H109.377L95.0151 95.3411C91.1061 99.2152 86.5754 102.463 81.5859 104.922Z" fill="white" fill-opacity="0.5"/>
<defs>
<linearGradient id="paint0_linear_1099_340" x1="59" y1="0" x2="59" y2="118" gradientUnits="userSpaceOnUse">
<stop stop-color="#1AD5FE"/>
<stop offset="1" stop-color="#1E63EF"/>
</linearGradient>
</defs>
</svg>
