<svg width="70" height="12" viewBox="0 0 70 12" fill="none" xmlns="http://www.w3.org/2000/svg">
<path d="M2.88379 11.6758C3.104 11.8477 3.3833 11.7886 3.71631 11.5469L6.55762 9.45752L9.4043 11.5469C9.7373 11.7886 10.0112 11.8477 10.2368 11.6758C10.457 11.5093 10.5054 11.2354 10.3711 10.8486L9.24854 7.50244L12.1167 5.44531C12.4497 5.20898 12.584 4.95654 12.498 4.69336C12.4121 4.43018 12.1597 4.30127 11.7461 4.30664L8.22803 4.3335L7.15918 0.971191C7.03027 0.579102 6.83691 0.375 6.55762 0.375C6.28369 0.375 6.09033 0.579102 5.96143 0.971191L4.89258 4.3335L1.37451 4.30664C0.960938 4.30127 0.708496 4.43018 0.622559 4.69336C0.53125 4.95654 0.670898 5.20898 1.00391 5.44531L3.87207 7.50244L2.74951 10.8486C2.61523 11.2354 2.66357 11.5093 2.88379 11.6758ZM17.0098 11.6758C17.23 11.8477 17.5093 11.7886 17.8423 11.5469L20.6836 9.45752L23.5303 11.5469C23.8633 11.7886 24.1372 11.8477 24.3628 11.6758C24.583 11.5093 24.6313 11.2354 24.4971 10.8486L23.3745 7.50244L26.2427 5.44531C26.5757 5.20898 26.71 4.95654 26.624 4.69336C26.5381 4.43018 26.2856 4.30127 25.8721 4.30664L22.354 4.3335L21.2852 0.971191C21.1562 0.579102 20.9629 0.375 20.6836 0.375C20.4097 0.375 20.2163 0.579102 20.0874 0.971191L19.0186 4.3335L15.5005 4.30664C15.0869 4.30127 14.8345 4.43018 14.7485 4.69336C14.6572 4.95654 14.7969 5.20898 15.1299 5.44531L17.998 7.50244L16.8755 10.8486C16.7412 11.2354 16.7896 11.5093 17.0098 11.6758ZM31.1357 11.6758C31.356 11.8477 31.6353 11.7886 31.9683 11.5469L34.8096 9.45752L37.6562 11.5469C37.9893 11.7886 38.2632 11.8477 38.4888 11.6758C38.709 11.5093 38.7573 11.2354 38.623 10.8486L37.5005 7.50244L40.3687 5.44531C40.7017 5.20898 40.8359 4.95654 40.75 4.69336C40.6641 4.43018 40.4116 4.30127 39.998 4.30664L36.48 4.3335L35.4111 0.971191C35.2822 0.579102 35.0889 0.375 34.8096 0.375C34.5356 0.375 34.3423 0.579102 34.2134 0.971191L33.1445 4.3335L29.6265 4.30664C29.2129 4.30127 28.9604 4.43018 28.8745 4.69336C28.7832 4.95654 28.9229 5.20898 29.2559 5.44531L32.124 7.50244L31.0015 10.8486C30.8672 11.2354 30.9155 11.5093 31.1357 11.6758ZM45.2617 11.6758C45.4819 11.8477 45.7612 11.7886 46.0942 11.5469L48.9355 9.45752L51.7822 11.5469C52.1152 11.7886 52.3892 11.8477 52.6147 11.6758C52.835 11.5093 52.8833 11.2354 52.749 10.8486L51.6265 7.50244L54.4946 5.44531C54.8276 5.20898 54.9619 4.95654 54.876 4.69336C54.79 4.43018 54.5376 4.30127 54.124 4.30664L50.606 4.3335L49.5371 0.971191C49.4082 0.579102 49.2148 0.375 48.9355 0.375C48.6616 0.375 48.4683 0.579102 48.3394 0.971191L47.2705 4.3335L43.7524 4.30664C43.3389 4.30127 43.0864 4.43018 43.0005 4.69336C42.9092 4.95654 43.0488 5.20898 43.3818 5.44531L46.25 7.50244L45.1274 10.8486C44.9932 11.2354 45.0415 11.5093 45.2617 11.6758ZM59.3877 11.6758C59.6079 11.8477 59.8872 11.7886 60.2202 11.5469L63.0615 9.45752L65.9082 11.5469C66.2412 11.7886 66.5151 11.8477 66.7407 11.6758C66.9609 11.5093 67.0093 11.2354 66.875 10.8486L65.7524 7.50244L68.6206 5.44531C68.9536 5.20898 69.0879 4.95654 69.002 4.69336C68.916 4.43018 68.6636 4.30127 68.25 4.30664L64.7319 4.3335L63.6631 0.971191C63.5342 0.579102 63.3408 0.375 63.0615 0.375C62.7876 0.375 62.5942 0.579102 62.4653 0.971191L61.3965 4.3335L57.8784 4.30664C57.4648 4.30127 57.2124 4.43018 57.1265 4.69336C57.0352 4.95654 57.1748 5.20898 57.5078 5.44531L60.376 7.50244L59.2534 10.8486C59.1191 11.2354 59.1675 11.5093 59.3877 11.6758Z" fill="#8D8F93"/>
</svg>
